<svg id="Layer_1" data-name="Layer 1" xmlns="http://www.w3.org/2000/svg" width="1920" height="1080" viewBox="0 0 1920 1080"><title>Artboard 1</title><path d="M150.08,155.39q18.87,17,18.87,46.29a76.72,76.72,0,0,1-6.5,31.49q-6.49,14.67-21.16,24.1t-37.87,9.43H76.9v59.42h-37V138.44H96.79Q131.21,138.44,150.08,155.39ZM120,226a27.7,27.7,0,0,0,9.18-11.09A30.37,30.37,0,0,0,132,202.7a35.68,35.68,0,0,0-5.87-19.26q-5.86-9.3-22.69-9.3H76.9v56.61h26.26Q113.62,230.75,120,226Z"/><path d="M275.8,289.4H213.58l-15.3,36.72H161.81L246.47,131h2l84.66,195.08H290.33Zm-12.24-31.11-18.11-45.65-18.87,45.65Z"/><path d="M392.59,273.84a41.13,41.13,0,0,0,14.28,13.26A37.91,37.91,0,0,0,426,292.2a40.8,40.8,0,0,0,20.15-5.1,39.43,39.43,0,0,0,14.4-13.26,31.15,31.15,0,0,0,5.23-17.08V138.44h36.47V257.52A66.86,66.86,0,0,1,492,293.86a70.17,70.17,0,0,1-27.67,25.24,85.55,85.55,0,0,1-76.63,0,69.39,69.39,0,0,1-27.41-25.24,67.36,67.36,0,0,1-10.07-36.34V138.44h37V256.76A30.66,30.66,0,0,0,392.59,273.84Z"/><path d="M583.84,138.44v152h88.23v35.7H546.86V138.44Z"/><path d="M747.29,138.44V326.12h-37V138.44Z"/><path d="M964.8,138.44V333.77h-1L832.46,215.19l.76,110.93H795.74V131h1.53L928.34,251.4l-.77-113Z"/><path d="M1141.26,138.44v35.7h-91v40h80.58v35.7h-80.58v40.55h94.6v35.7H1013.25V138.44Z"/><path d="M197.77,632.12h-37V555.87H76.9v76.25h-37V444.44h37v75.73h83.89V444.44h37Z"/><path d="M247.62,490.85a97.35,97.35,0,0,1,34.93-35.32,93.63,93.63,0,0,1,95.63,0,99.49,99.49,0,0,1,35.19,35.32,93.61,93.61,0,0,1,0,95.62,98,98,0,0,1-35.19,34.81,95.42,95.42,0,0,1-95.75,0,96.1,96.1,0,0,1-34.81-34.81,95.17,95.17,0,0,1,0-95.62Zm33.15,77.77a58.5,58.5,0,0,0,21.16,21.8,56.62,56.62,0,0,0,29.71,8,53.73,53.73,0,0,0,28.82-8,56.91,56.91,0,0,0,20.4-21.67,65.25,65.25,0,0,0-.26-60.82,58.2,58.2,0,0,0-20.78-21.8,57.11,57.11,0,0,0-58.4,0,58.2,58.2,0,0,0-20.78,21.8,61.94,61.94,0,0,0-7.65,30.6A60.09,60.09,0,0,0,280.77,568.62Z"/><path d="M564.71,632.12l-39.53-59.67H500.45v59.67h-37V444.44h56.87q34.93,0,54.19,16.95t19.25,46.29a74.2,74.2,0,0,1-7.27,32.51A53.92,53.92,0,0,1,564.2,564l43.6,68.09Zm-64.26-95.37h26.26q15,0,21.93-8.8a30.24,30.24,0,0,0,6.89-19,36.07,36.07,0,0,0-5.87-19.51q-5.86-9.3-22.69-9.3H500.45Z"/><path d="M807.47,444.44V639.77h-1L675.12,521.19l.77,110.93H638.4V437h1.53L771,557.4l-.76-113Z"/><path d="M975.64,551.15a41.71,41.71,0,0,1,8.28,25.63q0,28.56-18.74,42t-46.79,13.39H855.91V444.44H911q29.84,0,46.92,12.11T975,491.61q0,14-5.87,24.61a44.72,44.72,0,0,1-16.57,17Q967.35,540.07,975.64,551.15Zm-82.75-30h22.44q10.2,0,15.81-6.25a22.22,22.22,0,0,0,5.61-15.42q0-9.43-6.38-14.41t-17.59-5H892.89Zm44.75,71.27q8-5.22,8-15.68,0-19.89-31.62-19.89H892.89v40.8H916.6Q929.61,597.69,937.64,592.46Z"/><path d="M1195.19,506a90.4,90.4,0,0,1,6,32.51,91.64,91.64,0,0,1-13.13,47.94,98,98,0,0,1-35.19,34.81,95.62,95.62,0,0,1-97.79-1.15L1039.51,638l-23.46-21.16,15-17.6A91.78,91.78,0,0,1,1015,571.17a95.47,95.47,0,0,1-5.61-32.64,93.34,93.34,0,0,1,12.88-47.68,97.35,97.35,0,0,1,34.93-35.32,91.77,91.77,0,0,1,47.82-13.13,92.85,92.85,0,0,1,49.47,14.28l15.81-18.11,23,21.42-14.79,17.34A102.31,102.31,0,0,1,1195.19,506Zm-138.85,64.13,74.46-85.93a53.33,53.33,0,0,0-25.5-6.12,54.83,54.83,0,0,0-29.2,8,58.2,58.2,0,0,0-20.78,21.8,61.94,61.94,0,0,0-7.65,30.6A59.75,59.75,0,0,0,1056.34,570.15Zm78.8,20.27a56.91,56.91,0,0,0,20.4-21.67,62.48,62.48,0,0,0,7.39-30.22,63.38,63.38,0,0,0-8.92-32.89l-74.72,86.19a56.79,56.79,0,0,0,27,6.63A53.73,53.73,0,0,0,1135.14,590.42Z"/><path d="M1276.66,444.44v152h88.23v35.7H1239.68V444.44Z"/><path d="M1440.11,444.44v152h88.23v35.7H1403.13V444.44Z"/><path d="M209,750.44V945.77h-1L76.64,827.19l.77,110.93H39.92V743h1.53L172.52,863.4l-.76-113Z"/><path d="M294.41,750.44V938.12h-37V750.44Z"/><path d="M470.87,750.44v35.7h-91v40h80.58v35.7H379.84v40.55h94.6v35.7H342.86V750.44Z"/><path d="M549.66,750.44v152h88.23v35.7H512.69V750.44Z"/><path d="M733.77,782.31q-12.24,0-19,4.85T708,801.69q0,8.92,9.82,15.68T744,830.25a108.76,108.76,0,0,1,22.69,11.09,49.78,49.78,0,0,1,15.69,17.22q6.24,11,6.24,27.79a50.84,50.84,0,0,1-7.52,26.9q-7.52,12.38-22.06,19.64t-34.68,7.27a115.5,115.5,0,0,1-33.4-5A104.25,104.25,0,0,1,660.07,920l16.32-28.81a88.74,88.74,0,0,0,22.19,11.73q12.49,4.59,22.44,4.59,11.73,0,20.4-5t8.67-16.19q0-14.54-27.29-25.24A244.14,244.14,0,0,1,696,848.87,55.13,55.13,0,0,1,677.54,832q-7.78-11-7.78-27.54,0-24.22,15.94-39t42.46-16.06q20.91,0,34.93,4.71a119.57,119.57,0,0,1,27.29,13.39l-14,28.31Q751.87,782.32,733.77,782.31Z"/><path d="M952.81,750.44v35.7h-91v40h80.58v35.7H861.78v40.55h94.6v35.7H824.8V750.44Z"/><path d="M1163.69,750.44V945.77h-1L1031.35,827.19l.76,110.93H994.63V743h1.53L1127.23,863.4l-.77-113Z"/></svg>