<svg id="Layer_1" data-name="Layer 1" xmlns="http://www.w3.org/2000/svg" width="1920" height="1080" viewBox="0 0 1920 1080"><title>splashbillede</title><path d="M144.28,142.07q17.88,16.06,17.88,43.84A72.68,72.68,0,0,1,156,215.74q-6.17,13.89-20.05,22.83t-35.87,8.94H75v56.28h-35V126H93.8Q126.41,126,144.28,142.07ZM115.78,209a26.33,26.33,0,0,0,8.7-10.51,28.74,28.74,0,0,0,2.65-11.59,33.8,33.8,0,0,0-5.55-18.24q-5.56-8.82-21.5-8.82H75v53.63H99.83Q109.75,213.45,115.78,209Z"/><path d="M263.38,269H204.44l-14.5,34.78H155.4L235.6,119h1.93l80.21,184.79H277.15Zm-11.59-29.47L234.63,196.3l-17.87,43.24Z"/><path d="M374,254.27a38.9,38.9,0,0,0,13.52,12.56,36,36,0,0,0,18.12,4.83,38.66,38.66,0,0,0,19.09-4.83,37.48,37.48,0,0,0,13.65-12.56,29.53,29.53,0,0,0,4.95-16.18V126H477.9v112.8a63.24,63.24,0,0,1-9.66,34.42A66.52,66.52,0,0,1,442,297.15a81.14,81.14,0,0,1-72.59,0,65.79,65.79,0,0,1-26-23.92,63.75,63.75,0,0,1-9.55-34.42V126h35V238.09A29,29,0,0,0,374,254.27Z"/><path d="M555.21,126V270H638.8v33.82H520.18V126Z"/><path d="M710.06,126V303.79H675V126Z"/><path d="M916.12,126V311h-1L790.74,198.71l.73,105.08H756V119h1.45L881.58,233l-.73-107Z"/><path d="M1083.29,126v33.81H997.05v37.93h76.34v33.81H997.05V270h89.63v33.82H962V126Z"/><path d="M189.46,593.65h-35V521.43H75v72.22h-35V415.87H75v71.74h79.48V415.87h35Z"/><path d="M236.69,459.83a92.12,92.12,0,0,1,33.09-33.45,88.68,88.68,0,0,1,90.59,0,94.06,94.06,0,0,1,33.34,33.45,88.68,88.68,0,0,1,0,90.59,92.74,92.74,0,0,1-33.34,33,90.41,90.41,0,0,1-90.71,0,91.1,91.1,0,0,1-33-33,90.18,90.18,0,0,1,0-90.59Zm31.4,73.68a55.51,55.51,0,0,0,20.05,20.65,53.71,53.71,0,0,0,28.15,7.61,50.93,50.93,0,0,0,27.29-7.61,53.83,53.83,0,0,0,19.33-20.53,61.76,61.76,0,0,0-.24-57.61A55.21,55.21,0,0,0,343,455.36a54.13,54.13,0,0,0-55.32,0A55.14,55.14,0,0,0,268,476a58.67,58.67,0,0,0-7.25,29A57,57,0,0,0,268.09,533.51Z"/><path d="M537.09,593.65l-37.45-56.52H476.21v56.52h-35V415.87h53.87q33.1,0,51.34,16.06t18.24,43.85a70.34,70.34,0,0,1-6.89,30.79,51,51,0,0,1-21.14,22.59l41.31,64.49Zm-60.88-90.34h24.88q14.25,0,20.78-8.33a28.62,28.62,0,0,0,6.52-18,34.11,34.11,0,0,0-5.56-18.48q-5.55-8.81-21.5-8.81H476.21Z"/><path d="M767.07,415.87v185h-1L641.69,488.58l.72,105.07H606.9V408.87h1.45l124.17,114-.72-107Z"/><path d="M926.39,517a39.51,39.51,0,0,1,7.85,24.28q0,27-17.76,39.73t-44.33,12.68H813V415.87h52.18q28.26,0,44.45,11.47t16.18,33.22q0,13.29-5.55,23.31a42.32,42.32,0,0,1-15.71,16.06Q918.53,506.45,926.39,517ZM848,488.58h21.25q9.66,0,15-5.92a21.08,21.08,0,0,0,5.32-14.61q0-8.94-6-13.65t-16.67-4.71H848Zm42.39,67.51q7.62-5,7.61-14.85,0-18.84-30-18.84H848V561h22.46Q882.79,561,890.39,556.09Z"/><path d="M1134.38,474.21a85.43,85.43,0,0,1,5.68,30.79,86.82,86.82,0,0,1-12.44,45.42,92.82,92.82,0,0,1-33.34,33,90.59,90.59,0,0,1-92.64-1.09L986.9,599.21l-22.23-20.05,14.26-16.67a86.7,86.7,0,0,1-15.22-26.57A90.25,90.25,0,0,1,958.39,505a88.51,88.51,0,0,1,12.2-45.17,92.14,92.14,0,0,1,33.1-33.45,87,87,0,0,1,45.3-12.44,88,88,0,0,1,46.86,13.52l15-17.15,21.74,20.3-14,16.42A96.74,96.74,0,0,1,1134.38,474.21ZM1002.84,535l70.54-81.41a50.54,50.54,0,0,0-24.15-5.79,52,52,0,0,0-27.66,7.6A55.14,55.14,0,0,0,1001.88,476a58.67,58.67,0,0,0-7.25,29A56.65,56.65,0,0,0,1002.84,535Zm74.65,19.2a53.83,53.83,0,0,0,19.33-20.53,59.08,59.08,0,0,0,7-28.63,60,60,0,0,0-8.45-31.16l-70.78,81.65a53.71,53.71,0,0,0,25.6,6.28A50.94,50.94,0,0,0,1077.49,554.16Z"/><path d="M1211.56,415.87v144h83.59v33.81H1176.53V415.87Z"/><path d="M1366.41,415.87v144H1450v33.81H1331.38V415.87Z"/><path d="M200.09,705.74v185h-1L74.71,778.44l.73,105.08H39.92V698.73h1.45l124.17,114-.72-107Z"/><path d="M281,705.74V883.52H246V705.74Z"/><path d="M448.19,705.74v33.81H361.94v37.93h76.34v33.81H361.94V849.7h89.63v33.82H326.92V705.74Z"/><path d="M522.83,705.74v144h83.59v33.82H487.8V705.74Z"/><path d="M697.25,735.93q-11.6,0-18,4.59t-6.4,13.77q0,8.46,9.3,14.85t24.76,12.2a103,103,0,0,1,21.5,10.51,47.08,47.08,0,0,1,14.86,16.31q5.93,10.38,5.92,26.32A48.17,48.17,0,0,1,742.06,860q-7.12,11.71-20.89,18.6t-32.86,6.88a109.65,109.65,0,0,1-31.65-4.71,98.87,98.87,0,0,1-29.23-14.37l15.46-27.3a83.77,83.77,0,0,0,21,11.11q11.83,4.35,21.26,4.35a38.21,38.21,0,0,0,19.33-4.71q8.21-4.71,8.21-15.34,0-13.77-25.85-23.91A231.13,231.13,0,0,1,661.5,799,52.15,52.15,0,0,1,644,783q-7.37-10.38-7.37-26.08,0-23,15.1-37t40.23-15.22q19.8,0,33.09,4.47a113.36,113.36,0,0,1,25.85,12.68l-13.29,26.81Q714.4,735.94,697.25,735.93Z"/><path d="M904.76,705.74v33.81H818.52v37.93h76.34v33.81H818.52V849.7h89.63v33.82H783.49V705.74Z"/><path d="M1104.55,705.74v185h-1L979.17,778.44l.72,105.08H944.38V698.73h1.45l124.17,114-.72-107Z"/><path d="M73.43,959q6.66,6,6.66,16.33a27,27,0,0,1-2.3,11.12,19.32,19.32,0,0,1-7.46,8.5Q65.14,998.3,57,998.3H47.6v21H34.55V953H54.62Q66.77,953,73.43,959ZM62.81,984A9.78,9.78,0,0,0,66.05,980a10.71,10.71,0,0,0,1-4.32A12.56,12.56,0,0,0,65,968.92q-2.07-3.28-8-3.29H47.6v20h9.27A9.75,9.75,0,0,0,62.81,984Z"/><path d="M92.28,969.41A34.33,34.33,0,0,1,104.61,957a33,33,0,0,1,33.75,0,35.05,35.05,0,0,1,12.42,12.46,33,33,0,0,1,0,33.75,34.58,34.58,0,0,1-12.42,12.29,33.71,33.71,0,0,1-33.79,0,34,34,0,0,1-12.29-12.29,33.63,33.63,0,0,1,0-33.75ZM104,996.86a20.68,20.68,0,0,0,7.47,7.7,20,20,0,0,0,10.49,2.83,19,19,0,0,0,10.17-2.83,20.07,20.07,0,0,0,7.2-7.65,23,23,0,0,0-.09-21.47,20.54,20.54,0,0,0-7.34-7.69,20.12,20.12,0,0,0-20.61,0,20.52,20.52,0,0,0-7.33,7.69,21.86,21.86,0,0,0-2.7,10.8A21.22,21.22,0,0,0,104,996.86Z"/><path d="M204.2,1019.27l-13.95-21.06h-8.73v21.06H168.47V953h20.07q12.33,0,19.12,6t6.8,16.33a26.25,26.25,0,0,1-2.57,11.48,19,19,0,0,1-7.87,8.41l15.39,24Zm-22.68-33.66h9.27q5.31,0,7.74-3.1A10.68,10.68,0,0,0,201,975.8a12.7,12.7,0,0,0-2.07-6.88q-2.07-3.28-8-3.29h-9.36Z"/><path d="M269,953v12.6H252.89v53.64h-13V965.63H224.36V953Z"/><path d="M323,953v12.6H294.65v15h24.57v12.6H294.65v26h-13V953Z"/><path d="M336.09,969.41A34.33,34.33,0,0,1,348.42,957a33,33,0,0,1,33.75,0,35.05,35.05,0,0,1,12.42,12.46,33,33,0,0,1,0,33.75,34.58,34.58,0,0,1-12.42,12.29,33.71,33.71,0,0,1-33.79,0,33.92,33.92,0,0,1-12.29-12.29,33.63,33.63,0,0,1,0-33.75Zm11.7,27.45a20.68,20.68,0,0,0,7.47,7.7,20,20,0,0,0,10.49,2.83,19,19,0,0,0,10.17-2.83,20.07,20.07,0,0,0,7.2-7.65,23,23,0,0,0-.09-21.47,20.54,20.54,0,0,0-7.34-7.69,20.12,20.12,0,0,0-20.61,0,20.52,20.52,0,0,0-7.33,7.69,21.86,21.86,0,0,0-2.7,10.8A21.22,21.22,0,0,0,347.79,996.86Z"/><path d="M425.33,953v53.64h31.14v12.6h-44.2V953Z"/><path d="M483,953v66.24H470V953Z"/><path d="M500.61,969.41A34.33,34.33,0,0,1,512.94,957a33,33,0,0,1,33.75,0,35.05,35.05,0,0,1,12.42,12.46,33.07,33.07,0,0,1,0,33.75,34.58,34.58,0,0,1-12.42,12.29,33.72,33.72,0,0,1-33.8,0,34,34,0,0,1-12.28-12.29,33.57,33.57,0,0,1,0-33.75Zm11.7,27.45a20.68,20.68,0,0,0,7.47,7.7,20,20,0,0,0,10.48,2.83,19,19,0,0,0,10.17-2.83,20.07,20.07,0,0,0,7.2-7.65,23,23,0,0,0-.09-21.47,20.52,20.52,0,0,0-7.33-7.69,20.12,20.12,0,0,0-20.61,0,20.54,20.54,0,0,0-7.34,7.69,21.86,21.86,0,0,0-2.7,10.8A21.23,21.23,0,0,0,512.31,996.86Z"/><path d="M645.46,1006.67v12.6H602.35l4.86-4.86q8.46-8.64,13.1-13.86A65.4,65.4,0,0,0,628.05,990a20.44,20.44,0,0,0,3.1-10.22,7.68,7.68,0,0,0-2.52-6,9.63,9.63,0,0,0-6.66-2.25,9.17,9.17,0,0,0-6.3,2.07,6.14,6.14,0,0,0-2.34,4.68,12.57,12.57,0,0,0,3.51,9l-8,7.29a11,11,0,0,1-4.32-4,23.42,23.42,0,0,1-2.88-6.21,20.48,20.48,0,0,1-1-5.67,18,18,0,0,1,2.79-9.58,20.27,20.27,0,0,1,8.15-7.34,27,27,0,0,1,12.64-2.79,20.6,20.6,0,0,1,10.62,2.75,19.64,19.64,0,0,1,7.29,7.33,19.37,19.37,0,0,1,2.61,9.72A24.89,24.89,0,0,1,642.9,988a44.17,44.17,0,0,1-4.68,8.69q-2.84,4.1-7.52,9.94Z"/><path d="M665.44,1016.08a23.42,23.42,0,0,1-9-10.17q-3.33-6.79-3.33-16.79,0-30.42,25.11-30.24A23.9,23.9,0,0,1,691,962.17a23.42,23.42,0,0,1,9,10.17q3.33,6.79,3.33,16.78,0,10.26-3.33,17.06a22.54,22.54,0,0,1-9,10,24.65,24.65,0,0,1-12.78,3.15A23.89,23.89,0,0,1,665.44,1016.08ZM687.09,1002q2.65-4.86,2.65-13.23,0-17.28-11.61-17.28-6.21,0-8.82,4.68T666.7,989q0,8.28,2.61,13.05t8.82,4.77Q684.43,1006.85,687.09,1002Z"/><path d="M728.89,959.6v59.67H715.75V972.2H711V959.6Z"/><path d="M773.94,961.81a21.64,21.64,0,0,1,8.28,8.05,22.13,22.13,0,0,1,3,11.43,32.82,32.82,0,0,1-4.09,16.47,45,45,0,0,1-10.31,12.38,135.12,135.12,0,0,1-15,10.66l-8.73-9.45a71.63,71.63,0,0,0,11.34-5.85,38.33,38.33,0,0,0,8.19-6.84,18.61,18.61,0,0,1-8.91,2,16,16,0,0,1-8.41-2.47,18.66,18.66,0,0,1-6.62-6.89,19.6,19.6,0,0,1-2.52-9.9,22.59,22.59,0,0,1,3.11-12,21,21,0,0,1,8.19-7.79,22.56,22.56,0,0,1,10.75-2.7A23.79,23.79,0,0,1,773.94,961.81Zm-17.69,25.42a9,9,0,0,0,6.48,2.43,9.09,9.09,0,0,0,6.35-2.43,7.33,7.33,0,0,0,2.65-5.49v-2.07a8.92,8.92,0,0,0-2.61-6.34,8.48,8.48,0,0,0-6.39-2.75,8.69,8.69,0,0,0-6.48,2.57,9.76,9.76,0,0,0-2.52,7.15Q753.73,984.8,756.25,987.23Z"/></svg>
